<svg width="110" height="111" viewBox="0 0 110 111" fill="none" xmlns="http://www.w3.org/2000/svg">
<g clip-path="url(#clip0_1648_652)">
<path d="M62.3479 23.3088C58.7647 19.0762 55.6792 14.7774 55.0488 13.8846C54.9824 13.8184 54.8829 13.8184 54.8165 13.8846C54.1861 14.7774 51.1006 19.0762 47.5173 23.3088C16.7614 62.3614 52.3614 88.7163 52.3614 88.7163L52.6599 88.9147C52.9254 92.9822 53.5889 98.835 53.5889 98.835H54.916H56.2432C56.2432 98.835 56.9067 93.0151 57.1722 88.9147L57.4707 88.6834C57.5039 88.6834 93.1038 62.3614 62.3479 23.3088ZM54.916 88.121C54.916 88.121 53.3235 86.7653 52.8922 86.0708V86.0049L54.8165 43.48C54.8165 43.3477 55.0156 43.3477 55.0156 43.48L56.9399 86.0049V86.0708C56.5086 86.7653 54.916 88.121 54.916 88.121Z" fill="white"/>
</g>
<defs>
<clipPath id="clip0_1648_652">
<rect width="39.5349" height="85" fill="white" transform="translate(35 13.835)"/>
</clipPath>
</defs>
</svg>
