<svg width="110" height="111" viewBox="0 0 110 111" fill="none" xmlns="http://www.w3.org/2000/svg">
<path d="M54.914 65.2644C59.8455 65.2644 63.8434 61.2665 63.8434 56.335C63.8434 51.4034 59.8455 47.4055 54.914 47.4055C49.9824 47.4055 45.9845 51.4034 45.9845 56.335C45.9845 61.2665 49.9824 65.2644 54.914 65.2644Z" fill="white"/>
<path d="M54.914 65.2644C59.8455 65.2644 63.8434 61.2665 63.8434 56.335C63.8434 51.4034 59.8455 47.4055 54.914 47.4055C49.9824 47.4055 45.9845 51.4034 45.9845 56.335C45.9845 61.2665 49.9824 65.2644 54.914 65.2644Z" stroke="white" stroke-width="4"/>
<path d="M54.914 74.6294C81.3761 74.6294 102.828 66.4387 102.828 56.335C102.828 46.2312 81.3761 38.0405 54.914 38.0405C28.4518 38.0405 7 46.2312 7 56.335C7 66.4387 28.4518 74.6294 54.914 74.6294Z" stroke="white" stroke-width="4"/>
<path d="M39.0705 65.4822C52.3016 88.3991 70.1209 102.882 78.8709 97.8297C87.621 92.7778 83.9885 70.1046 70.7574 47.1878C57.5263 24.2709 39.7071 9.78839 30.957 14.8403C22.2069 19.8921 25.8395 42.5653 39.0705 65.4822Z" stroke="white" stroke-width="4"/>
<path d="M39.0705 47.1878C25.8395 70.1046 22.2069 92.7778 30.957 97.8297C39.7071 102.882 57.5263 88.3991 70.7574 65.4822C83.9885 42.5653 87.621 19.8921 78.8709 14.8403C70.1209 9.78839 52.3016 24.2709 39.0705 47.1878Z" stroke="white" stroke-width="4"/>
</svg>
