<svg width="110" height="111" viewBox="0 0 110 111" fill="none" xmlns="http://www.w3.org/2000/svg">
<path fill-rule="evenodd" clip-rule="evenodd" d="M12 13.835H97V98.835H12V13.835ZM64.627 81.7328V81.4033L64.3115 81.4764C64.4158 81.5633 64.521 81.6488 64.627 81.7328ZM64.627 81.7328V89.7041C65.9717 90.4014 67.6152 90.916 69.4414 91.2646C71.2676 91.6133 73.2598 91.7793 75.252 91.7793C77.2441 91.7793 79.0703 91.5967 80.8965 91.2149C82.7227 90.833 84.2168 90.2021 85.5449 89.3887C86.8896 88.5088 88.0352 87.3965 88.6992 85.9024C89.3633 84.4082 89.8779 82.7481 89.8779 80.5899C89.8779 79.0791 89.6455 77.7676 89.1973 76.6055C88.749 75.4434 88.1016 74.4473 87.2051 73.6172C86.3584 72.7373 85.3789 71.957 84.2168 71.293C83.0547 70.6289 81.7266 69.9316 80.2324 69.3008C79.5533 69.023 78.9507 68.7515 78.3535 68.4825C77.9872 68.3175 77.6229 68.1534 77.2441 67.9893C76.3809 67.5576 75.6338 67.126 75.0859 66.6943C74.4717 66.2461 74.0068 65.7812 73.6748 65.2998C73.3428 64.8018 73.1768 64.2539 73.1768 63.6396C73.1768 63.0752 73.3245 62.5605 73.625 62.0957C73.9255 61.6308 74.3389 61.249 74.8701 60.917C75.4014 60.585 76.0654 60.336 76.8623 60.1533C77.6426 59.9707 78.5059 59.8877 79.5185 59.8877C80.2158 59.8877 80.9463 59.9392 81.6768 60.0438C82.4404 60.1483 83.2207 60.3094 84.001 60.5252C84.7813 60.741 85.5449 61.0067 86.3252 61.3387C87.0557 61.6707 87.7363 62.0525 88.3174 62.4842V54.6814C87.0557 54.2 85.6611 53.8348 84.167 53.6023C82.6728 53.3699 81.0127 53.2537 79.0205 53.2537C77.0283 53.2537 75.2021 53.4695 73.376 53.8846C71.5498 54.2996 70.0557 54.9637 68.7275 55.8768C67.3828 56.7732 66.4033 57.8689 65.5732 59.3631C64.793 60.7576 64.4111 62.3514 64.4111 64.3436C64.4111 66.8338 65.125 68.992 66.5693 70.6521C67.9971 72.4783 70.2217 73.8064 73.0439 75.1346C74.038 75.538 74.9321 75.9414 75.8021 76.3339C75.9346 76.3937 76.0666 76.4533 76.1982 76.5125C77.1943 76.9607 78.0244 77.4256 78.6885 77.907C79.4023 78.3885 79.9668 78.9197 80.3486 79.4842C80.7637 80.0486 80.9795 80.7127 80.9795 81.4764C80.9795 82.0076 80.85 82.5056 80.5976 82.9705C80.3453 83.4353 79.9502 83.8338 79.4189 84.1658C78.8877 84.4979 78.2402 84.7635 77.4268 84.9627C76.6465 85.1453 75.7666 85.2449 74.6045 85.2449C72.7783 85.2449 70.9521 84.9295 69.292 84.2986C67.5933 83.7118 66.0383 82.8521 64.627 81.7328ZM61.3066 60.9834H50.6816V91.3643H42.2148V60.9834H31.5898V54.1768H61.3066V60.9834Z" fill="white"/>
</svg>
